<svg width="33" height="32" viewBox="0 0 33 32" fill="none" xmlns="http://www.w3.org/2000/svg">
<path d="M18.7402 2.9358C18.7402 5.55131 21.9025 6.86117 23.752 5.01172L25.2117 3.552C25.8223 2.94133 26.8184 2.94735 27.4291 3.55801C28.0334 4.16227 28.0391 5.14797 27.4346 5.75195C27.4307 5.7559 27.4277 5.76073 27.4238 5.76465L20.6691 12.5184C20.5203 12.6672 20.5028 12.9003 20.6107 13.0811C20.6932 13.2193 20.8394 13.3105 21.0004 13.3105H31.2861C32.1502 13.3105 32.8506 14.011 32.8506 14.875C32.8506 15.739 32.1502 16.4395 31.2861 16.4395H21.3144C21.1716 16.4395 21.0473 16.5363 21.0019 16.6718C20.9622 16.7901 20.9895 16.9211 21.0777 17.0093L28.5029 24.4346C29.1111 25.0428 29.1107 26.029 28.502 26.6367C28.5004 26.6383 28.4996 26.641 28.498 26.6426C28.4963 26.6444 28.494 26.6457 28.4922 26.6475C27.8843 27.2553 26.8989 27.2553 26.291 26.6475L18.8725 19.2289C18.8489 19.2054 18.813 19.1998 18.7836 19.2153C18.7573 19.2292 18.7402 19.2562 18.7402 19.2859V29.7217C18.7402 30.5857 18.0398 31.2861 17.1758 31.2861C16.3118 31.2861 15.6113 30.5857 15.6113 29.7217V20.1399C15.6113 19.7449 15.344 19.4036 14.9882 19.2322C14.5938 19.0422 14.1129 19.0746 13.8033 19.3842L6.55762 26.6309C6.5555 26.633 6.55291 26.6346 6.55078 26.6367C5.94348 27.244 4.9557 27.2409 4.3484 26.6336C3.73759 26.0228 3.73441 25.0293 4.34522 24.4185L6.16211 22.6016C8.43608 20.3276 6.82556 16.4395 3.60968 16.4395H1.56445C0.70043 16.4395 0 15.739 0 14.875C0 14.011 0.70043 13.3105 1.56445 13.3105H4.31347C7.50208 13.3105 9.09894 9.45539 6.84426 7.2007L5.41946 5.77591C4.80864 5.16509 4.80864 4.17475 5.41946 3.56393C6.03026 2.95314 7.02055 2.95311 7.63138 3.56387L15.2017 11.1333C15.2661 11.1978 15.3619 11.2178 15.448 11.1878C15.5441 11.1544 15.6113 11.0651 15.6113 10.9633V1.56445C15.6113 0.70043 16.3118 0 17.1758 0C18.0398 0 18.7402 0.70043 18.7402 1.56445V2.9358Z" fill="#F9F4F3"/>
</svg>
